name rise45.9887peak57.8056fall74.9286.mot
datacolumns 19
datarows 17
range 12.51828700000000 12.54495800000000
endheader
time	ground_force1_vx	ground_force1_vy	ground_force1_vz	ground_force1_px	ground_force1_py	ground_force1_pz	ground_force2_vx	ground_force2_vy	ground_force2_vz	ground_force2_px	ground_force2_py	ground_force2_pz	ground_torque1_x	ground_torque1_y	ground_torque1_z	ground_torque2_x	ground_torque2_y	ground_torque2_z	
12.51828700000000	-5.32728900000000	42.87898900000000	-8.93356100000000	0.33693100000000	0.00000000000000	0.09758400000000	-47.44202200000000	805.28388299999995	-52.92173100000000	0.16710800000000	0.00000000000000	-0.07926000000000	0.00000000000000	-6.43081200000000	0.00000000000000	0.00000000000000	-23.51888500000000	0.00000000000000	
12.51995000000000	-5.79528600000000	50.23244600000000	-10.02227300000000	0.34135500000000	0.00000000000000	0.09844200000000	-48.16675600000000	803.09427700000003	-52.70565200000000	0.16609500000000	0.00000000000000	-0.07915300000000	0.00000000000000	-7.28094500000000	0.00000000000000	0.00000000000000	-23.44464600000000	0.00000000000000	
12.52161700000000	-6.14794300000000	57.66848800000000	-11.00270400000000	0.34544300000000	0.00000000000000	0.09921300000000	-48.90896700000000	800.76382599999999	-52.47020600000000	0.16508200000000	0.00000000000000	-0.07904400000000	0.00000000000000	-8.06650000000000	0.00000000000000	0.00000000000000	-23.37004800000000	0.00000000000000	
12.52328900000000	-6.36990700000000	65.08928100000000	-11.85101300000000	0.34925000000000	0.00000000000000	0.09991100000000	-49.66793000000000	798.28925700000002	-52.21494600000000	0.16407100000000	0.00000000000000	-0.07893200000000	0.00000000000000	-8.76923100000000	0.00000000000000	0.00000000000000	-23.29498400000000	0.00000000000000	
12.52495800000000	-6.45204300000000	72.42051400000000	-12.55149400000000	0.35282200000000	0.00000000000000	0.10054800000000	-50.44281600000000	795.66729199999997	-51.93944100000000	0.16306200000000	0.00000000000000	-0.07881600000000	0.00000000000000	-9.37656700000000	0.00000000000000	0.00000000000000	-23.21933500000000	0.00000000000000	
12.52662200000000	-6.39133200000000	79.61367100000000	-13.09665600000000	0.35619500000000	0.00000000000000	0.10113100000000	-51.23269500000000	792.89464999999996	-51.64327900000000	0.16205800000000	0.00000000000000	-0.07869800000000	0.00000000000000	-9.88179300000000	0.00000000000000	0.00000000000000	-23.14297000000000	0.00000000000000	
12.52828500000000	-6.19028100000000	86.64580700000000	-13.48662600000000	0.35939600000000	0.00000000000000	0.10166700000000	-52.03653400000000	789.96806600000002	-51.32606700000000	0.16105900000000	0.00000000000000	-0.07857700000000	0.00000000000000	-10.28372800000000	0.00000000000000	0.00000000000000	-23.06574300000000	0.00000000000000	
12.52995200000000	-5.85598800000000	93.51725500000001	-13.72802800000000	0.36245000000000	0.00000000000000	0.10216300000000	-52.85319800000000	786.88429199999996	-50.98743600000000	0.16006700000000	0.00000000000000	-0.07845200000000	0.00000000000000	-10.58599000000000	0.00000000000000	0.00000000000000	-22.98749900000000	0.00000000000000	
12.53162400000000	-5.39899700000000	100.24781700000000	-13.83252200000000	0.36537400000000	0.00000000000000	0.10262300000000	-53.68145100000000	783.64011000000005	-50.62704100000000	0.15908300000000	0.00000000000000	-0.07832300000000	0.00000000000000	-10.79600800000000	0.00000000000000	0.00000000000000	-22.90806800000000	0.00000000000000	
12.53329000000000	-4.83207500000000	106.87202200000000	-13.81519000000000	0.36818400000000	0.00000000000000	0.10305100000000	-54.51995400000000	780.23234800000000	-50.24456800000000	0.15810800000000	0.00000000000000	-0.07819100000000	0.00000000000000	-10.92388000000000	0.00000000000000	0.00000000000000	-22.82727000000000	0.00000000000000	
12.53495100000000	-4.16901200000000	113.43399700000001	-13.69291900000000	0.37089400000000	0.00000000000000	0.10345100000000	-55.36727200000000	776.65788299999997	-49.83973000000000	0.15714300000000	0.00000000000000	-0.07805600000000	0.00000000000000	-10.98121300000000	0.00000000000000	0.00000000000000	-22.74491400000000	0.00000000000000	
12.53661800000000	-3.42356400000000	119.98244500000000	-13.48292000000000	0.37351200000000	0.00000000000000	0.10382500000000	-56.22186900000000	772.91365900000005	-49.41227500000000	0.15619000000000	0.00000000000000	-0.07791700000000	0.00000000000000	-10.98003400000000	0.00000000000000	0.00000000000000	-22.66079900000000	0.00000000000000	
12.53828500000000	-2.60857100000000	126.56611300000000	-13.20147400000000	0.37604900000000	0.00000000000000	0.10417700000000	-57.08211800000000	768.99669800000004	-48.96198700000000	0.15524900000000	0.00000000000000	-0.07777300000000	0.00000000000000	-10.93185800000000	0.00000000000000	0.00000000000000	-22.57471200000000	0.00000000000000	
12.53995700000000	-1.73530900000000	133.23001099999999	-12.86297300000000	0.37851000000000	0.00000000000000	0.10450800000000	-57.94629600000000	764.90411300000005	-48.48868600000000	0.15432300000000	0.00000000000000	-0.07762600000000	0.00000000000000	-10.84694800000000	0.00000000000000	0.00000000000000	-22.48643100000000	0.00000000000000	
12.54162000000000	-0.81307000000000	140.01255599999999	-12.47926400000000	0.38090100000000	0.00000000000000	0.10482100000000	-58.81259300000000	760.63312099999996	-47.99223500000000	0.15341200000000	0.00000000000000	-0.07747500000000	0.00000000000000	-10.73379400000000	0.00000000000000	0.00000000000000	-22.39572600000000	0.00000000000000	
12.54328500000000	0.15102200000000	146.94368600000001	-12.05930800000000	0.38322700000000	0.00000000000000	0.10511600000000	-59.67911000000000	756.18105700000001	-47.47254000000000	0.15251800000000	0.00000000000000	-0.07732000000000	0.00000000000000	-10.59882900000000	0.00000000000000	0.00000000000000	-22.30235800000000	0.00000000000000	
12.54495800000000	1.15200400000000	154.04392200000001	-11.60911600000000	0.38549200000000	0.00000000000000	0.10539600000000	-60.54386800000000	751.54539299999999	-46.92955000000000	0.15164100000000	0.00000000000000	-0.07716000000000	0.00000000000000	-10.44633600000000	0.00000000000000	0.00000000000000	-22.20608000000000	0.00000000000000	
